<?xml version="1.0" encoding="UTF-8" standalone="no"?>
<!-- Created with Inkscape (http://www.inkscape.org/) -->

<svg
   xmlns:dc="http://purl.org/dc/elements/1.1/"
   xmlns:cc="http://creativecommons.org/ns#"
   xmlns:rdf="http://www.w3.org/1999/02/22-rdf-syntax-ns#"
   xmlns:svg="http://www.w3.org/2000/svg"
   xmlns="http://www.w3.org/2000/svg"
   xmlns:sodipodi="http://sodipodi.sourceforge.net/DTD/sodipodi-0.dtd"
   xmlns:inkscape="http://www.inkscape.org/namespaces/inkscape"
   width="103.9873mm"
   height="108.22142mm"
   viewBox="0 0 368.45895 383.46172"
   id="svg4518"
   version="1.1"
   inkscape:version="0.91 r13725"
   sodipodi:docname="floating_mine.svg">
  <defs
     id="defs4520" />
  <sodipodi:namedview
     id="base"
     pagecolor="#ffffff"
     bordercolor="#666666"
     borderopacity="1.0"
     inkscape:pageopacity="0.0"
     inkscape:pageshadow="2"
     inkscape:zoom="0.35"
     inkscape:cx="-375.57098"
     inkscape:cy="124.588"
     inkscape:document-units="px"
     inkscape:current-layer="layer1"
     showgrid="false"
     fit-margin-top="10"
     fit-margin-left="10"
     fit-margin-right="10"
     fit-margin-bottom="10"
     inkscape:window-width="1366"
     inkscape:window-height="705"
     inkscape:window-x="-8"
     inkscape:window-y="-8"
     inkscape:window-maximized="1" />
  <metadata
     id="metadata4523">
    <rdf:RDF>
      <cc:Work
         rdf:about="">
        <dc:format>image/svg+xml</dc:format>
        <dc:type
           rdf:resource="http://purl.org/dc/dcmitype/StillImage" />
        <dc:title></dc:title>
      </cc:Work>
    </rdf:RDF>
  </metadata>
  <g
     inkscape:label="Capa 1"
     inkscape:groupmode="layer"
     id="layer1"
     transform="translate(-187.71384,-273.48848)">
    <g
       style="display:inline"
       id="g8600"
       transform="matrix(2.0348956,0,0,2.0348956,-2390.701,-813.75526)">
      <path
         sodipodi:nodetypes="ccccc"
         inkscape:connector-curvature="0"
         id="path8486"
         d="m 1298.6283,645.30353 -5.2088,1.70487 c -0.9516,1.38265 -1.2481,2.27179 1.3484,3.21093 l 4.9632,-3.4372 z"
         style="fill:#000000;fill-rule:evenodd;stroke:none;stroke-width:1px;stroke-linecap:butt;stroke-linejoin:miter;stroke-opacity:1" />
      <path
         sodipodi:nodetypes="ccccc"
         inkscape:connector-curvature="0"
         id="path8488"
         d="m 1349.636,558.27689 -2.1967,-5.91974 c 0.1874,-1.89299 3.2057,-1.95058 3.601,-1.17175 l 1.6286,7.91864 z"
         style="fill:#000000;fill-rule:evenodd;stroke:none;stroke-width:1px;stroke-linecap:butt;stroke-linejoin:miter;stroke-opacity:1" />
      <path
         sodipodi:nodetypes="ccccc"
         inkscape:connector-curvature="0"
         id="path8490"
         d="m 1421.0467,618.10753 6.2244,-1.0943 c 3.0378,2.04303 1.7511,3.27212 0.7685,4.45291 l -6.4414,0.50143 z"
         style="fill:#000000;fill-rule:evenodd;stroke:none;stroke-width:1px;stroke-linecap:butt;stroke-linejoin:miter;stroke-opacity:1" />
      <path
         sodipodi:nodetypes="ccccc"
         inkscape:connector-curvature="0"
         id="path8500"
         d="m 1371.1419,694.75693 0,9.37439 c 1.441,1.7395 2.9157,1.2771 4.4115,-0.55144 l -1.6543,-9.6501 z"
         style="fill:#000000;fill-rule:evenodd;stroke:none;stroke-width:1px;stroke-linecap:butt;stroke-linejoin:miter;stroke-opacity:1" />
      <path
         sodipodi:nodetypes="ccccc"
         inkscape:connector-curvature="0"
         id="path8400"
         d="m 1411.5953,616.82388 10.2165,-1.45949 c 3.6708,2.86391 3.0484,6.26447 0.8676,9.85983 l -11.9517,2.01094 z"
         style="display:inline;fill:#0b2228;fill-opacity:1;fill-rule:evenodd;stroke:none;stroke-width:1px;stroke-linecap:butt;stroke-linejoin:miter;stroke-opacity:1" />
      <path
         sodipodi:nodetypes="ccccc"
         inkscape:connector-curvature="0"
         id="path8394"
         d="m 1349.1277,570.84075 -2.7317,-11.99213 c 2.9864,-5.46653 8.9593,-1.58086 8.9593,-1.58086 l 4.1837,14.4406 z"
         style="display:inline;fill:#0b2228;fill-opacity:1;fill-rule:evenodd;stroke:none;stroke-width:1px;stroke-linecap:butt;stroke-linejoin:miter;stroke-opacity:1" />
      <path
         sodipodi:nodetypes="ccccc"
         inkscape:connector-curvature="0"
         id="path8396"
         d="m 1298.369,642.73071 9.7864,-4.89693 4.1432,6.63214 -12.1214,4.61338 c -3.1269,0.26465 -4.6135,-4.65005 -1.8082,-6.34859 z"
         style="display:inline;fill:#0b2228;fill-opacity:1;fill-rule:evenodd;stroke:none;stroke-width:1px;stroke-linecap:butt;stroke-linejoin:miter;stroke-opacity:1" />
      <path
         sodipodi:nodetypes="ccccc"
         inkscape:connector-curvature="0"
         id="path8398"
         d="m 1367.3804,681.57817 -0.1948,15.97355 c 3.4999,4.76127 9.9875,-0.2679 9.9875,-0.2679 -0.4898,-3.36161 -1.5772,-10.69216 -2.723,-16.02181 z"
         style="display:inline;fill:#0b2228;fill-opacity:1;fill-rule:evenodd;stroke:none;stroke-width:1px;stroke-linecap:butt;stroke-linejoin:miter;stroke-opacity:1" />
      <path
         d="m 1419.4038,626.36755 a 58.563419,61.60004 0 0 1 -58.5624,61.60004 58.563419,61.60004 0 0 1 -58.5645,-61.59789 58.563419,61.60004 0 0 1 58.5604,-61.60219 58.563419,61.60004 0 0 1 58.5665,61.59574"
         sodipodi:open="true"
         sodipodi:end="6.2831155"
         sodipodi:start="0"
         sodipodi:ry="61.60004"
         sodipodi:rx="58.563419"
         sodipodi:cy="626.36755"
         sodipodi:cx="1360.8403"
         sodipodi:type="arc"
         id="path8380"
         style="color:#000000;clip-rule:nonzero;display:inline;overflow:visible;visibility:visible;opacity:1;isolation:auto;mix-blend-mode:normal;color-interpolation:sRGB;color-interpolation-filters:linearRGB;solid-color:#000000;solid-opacity:1;fill:#00112b;fill-opacity:1;fill-rule:evenodd;stroke:none;stroke-opacity:1;color-rendering:auto;image-rendering:auto;shape-rendering:auto;text-rendering:auto;enable-background:accumulate" />
      <path
         sodipodi:nodetypes="csssscssssssc"
         inkscape:connector-curvature="0"
         id="path8382"
         d="m 1345.7607,566.81297 c 0,0 -22.3753,25.37563 -25.264,41.33485 -2.5156,13.89777 0.7781,29.39558 7.8084,41.6451 5.7149,9.95757 15.1641,18.84507 26.0282,22.55776 9.8671,3.37195 21.3285,1.5226 31.2338,-1.73521 9.5247,-3.13262 24.3334,-12.62448 24.3334,-12.62448 0,0 -8.3937,14.69617 -16.5249,20.43293 -12.0425,8.49625 -27.0705,9.99684 -41.6451,7.80846 -13.6442,-2.04868 -26.3287,-8.56093 -35.0598,-19.24401 -7.4767,-9.14824 -12.6585,-28.47434 -13.5261,-31.94476 -0.8677,-3.47043 -1.3213,-17.61457 2.3271,-28.32229 3.2337,-9.49081 11.1391,-22.05429 18.8795,-28.42758 6.5091,-5.35946 21.3666,-11.73807 21.4095,-11.48077 z"
         style="display:inline;fill:#000000;fill-opacity:0.39917698;fill-rule:evenodd;stroke:none;stroke-width:1px;stroke-linecap:butt;stroke-linejoin:miter;stroke-opacity:1" />
      <path
         sodipodi:nodetypes="ccccc"
         inkscape:connector-curvature="0"
         id="path8384"
         d="m 1387.1001,590.95005 14.0554,-17.68127 c 13.1395,-1.00356 10.4737,9.77857 10.4737,9.77857 l -15.1803,15.12673 c -5.2971,4.51008 -11.9713,-3.68648 -9.3488,-7.22403 z"
         style="display:inline;fill:#164450;fill-opacity:1;fill-rule:evenodd;stroke:none;stroke-width:1px;stroke-linecap:butt;stroke-linejoin:miter;stroke-opacity:1" />
      <path
         sodipodi:nodetypes="ccccc"
         inkscape:connector-curvature="0"
         id="path8390"
         d="m 1360.6014,616.78343 11.3476,-6.99429 c 15.6799,0.30144 12.5166,19.68351 6.6038,22.36847 l -15.9405,-0.50351 c -5.8969,-0.51829 -8.1744,-12.70168 -2.0109,-14.87067 z"
         style="display:inline;fill:#164450;fill-rule:evenodd;stroke:none;stroke-width:1px;stroke-linecap:butt;stroke-linejoin:miter;stroke-opacity:1" />
      <path
         sodipodi:nodetypes="ccccc"
         inkscape:connector-curvature="0"
         id="path8392"
         d="m 1395.1108,661.93941 c -2.4227,-7.52662 5.5259,-11.70498 9.6981,-9.74594 6.3567,5.26706 14.0273,10.01226 20.025,14.60763 3.4952,6.73107 -0.688,15.42715 -9.1762,11.31411 z"
         style="display:inline;fill:#164450;fill-opacity:1;fill-rule:evenodd;stroke:none;stroke-width:1px;stroke-linecap:butt;stroke-linejoin:miter;stroke-opacity:1" />
      <path
         sodipodi:nodetypes="csssssc"
         inkscape:connector-curvature="0"
         id="path8480"
         d="m 1372.2448,609.28458 c 0,0 -4.9059,2.41035 -6.0658,4.68719 -1.419,2.78554 -1.6765,6.57964 -0.2757,9.37439 2.365,4.71847 7.8817,10.54142 12.9587,9.09867 4.0397,-1.14797 5.0416,-7.38127 4.9629,-11.58013 -0.072,-3.86373 -1.879,-8.14846 -4.9629,-10.47725 -1.7845,-1.34756 -6.6172,-1.10287 -6.6172,-1.10287 z"
         style="display:inline;fill:#0b2228;fill-rule:evenodd;stroke:none;stroke-width:1px;stroke-linecap:butt;stroke-linejoin:miter;stroke-opacity:1" />
      <path
         sodipodi:nodetypes="ssssssas"
         inkscape:connector-curvature="0"
         id="path8482"
         d="m 1424.9068,666.90949 c -1.3452,-1.64089 -3.9612,-2.20011 -6.0658,-1.93003 -2.0485,0.26289 -4.1642,1.54477 -5.2386,3.30861 -1.1038,1.81209 -1.1574,4.30805 -0.5515,6.3415 0.4673,1.56819 1.5612,3.14474 3.0329,3.86004 1.9012,0.92403 4.4363,0.91569 6.3415,0 1.5912,-0.76477 2.9438,-2.37927 3.4469,-4.08965 0.7104,-2.41517 0.6175,-5.55964 -0.9654,-7.49047 z"
         style="display:inline;fill:#0b2228;fill-opacity:1;fill-rule:evenodd;stroke:none;stroke-width:1px;stroke-linecap:butt;stroke-linejoin:miter;stroke-opacity:1" />
      <path
         sodipodi:nodetypes="ssssscs"
         inkscape:connector-curvature="0"
         id="path8484"
         d="m 1402.0222,572.33847 c -1.6984,1.2279 -2.1922,4.04022 -1.6543,6.06578 0.6672,2.51241 3.0639,4.64681 5.5144,5.51434 1.6552,0.58598 4.0059,0.69894 5.2386,-0.55143 1.4254,-1.44579 1.2136,-4.14653 0.5514,-6.06578 -0.6998,-2.02823 -4.4114,-4.6872 -4.4114,-4.6872 0,0 -3.8216,-1.30023 -5.2387,-0.27571 z"
         style="display:inline;fill:#0b2228;fill-opacity:1;fill-rule:evenodd;stroke:none;stroke-width:1px;stroke-linecap:butt;stroke-linejoin:miter;stroke-opacity:1" />
      <path
         sodipodi:nodetypes="ccccc"
         inkscape:connector-curvature="0"
         id="path8492"
         d="m 1405.3308,575.92279 7.7202,-8.54723 c 0.5983,2.03245 1.8139,3.39605 3.86,3.86003 l -8.823,8.27153 c -1.3983,0.99054 -4.0072,-2.05822 -2.7572,-3.58433 z"
         style="display:inline;fill:#164450;fill-opacity:1;fill-rule:evenodd;stroke:none;stroke-width:1px;stroke-linecap:butt;stroke-linejoin:miter;stroke-opacity:1" />
      <path
         sodipodi:nodetypes="ccccc"
         inkscape:connector-curvature="0"
         id="path8494"
         d="m 1418.8977,674.09542 c -1.4871,-3.32423 1.3513,-3.78698 2.3191,-3.73417 l 9.895,5.66715 c 1.4203,2.29457 2.3935,5.71647 -3.3104,6.62096 z"
         style="display:inline;fill:#164450;fill-opacity:1;fill-rule:evenodd;stroke:none;stroke-width:1px;stroke-linecap:butt;stroke-linejoin:miter;stroke-opacity:1" />
      <path
         sodipodi:nodetypes="ccccc"
         inkscape:connector-curvature="0"
         id="path8496"
         d="m 1303.0397,583.64287 -12.1315,-7.16864 c -0.4945,-2.91981 0.8605,-4.70115 3.3086,-5.23863 l 11.8558,8.82295 z"
         style="display:inline;fill:#0b2228;fill-opacity:1;fill-rule:evenodd;stroke:none;stroke-width:1px;stroke-linecap:butt;stroke-linejoin:miter;stroke-opacity:1" />
      <path
         sodipodi:nodetypes="ccccc"
         inkscape:connector-curvature="0"
         id="path8498"
         d="m 1318.2042,686.20969 c -1.1029,1.10287 -7.9958,11.30441 -7.9958,11.30441 0.2886,2.07702 0.6852,4.24165 5.2386,3.58433 l 5.5144,-12.95872 z"
         style="display:inline;fill:#0b2228;fill-opacity:1;fill-rule:evenodd;stroke:none;stroke-width:1px;stroke-linecap:butt;stroke-linejoin:miter;stroke-opacity:1" />
      <path
         sodipodi:nodetypes="ccccc"
         inkscape:connector-curvature="0"
         id="path8502"
         d="m 1373.6234,616.17751 c -1.9061,2.32081 -2.1928,6.88602 0.8271,8.27152 l 14.2879,2.22538 -2.432,-14.63266 z"
         style="display:inline;fill:#164450;fill-opacity:1;fill-rule:evenodd;stroke:none;stroke-width:1px;stroke-linecap:butt;stroke-linejoin:miter;stroke-opacity:1" />
      <path
         sodipodi:nodetypes="sssss"
         inkscape:connector-curvature="0"
         id="path8504"
         d="m 1386.5821,612.04176 c -1.8231,0.065 -2.802,4.24206 -2.7572,6.06578 0.072,2.92427 2.6831,9.28224 5.5144,8.54722 2.1145,-0.54893 4.1567,-7.54184 3.5843,-9.65009 -0.5108,-1.88151 -4.3931,-5.03241 -6.3415,-4.96291 z"
         style="display:inline;fill:#0b2228;fill-opacity:1;fill-rule:evenodd;stroke:none;stroke-width:1px;stroke-linecap:butt;stroke-linejoin:miter;stroke-opacity:1" />
      <path
         sodipodi:nodetypes="ccccc"
         inkscape:connector-curvature="0"
         id="path8386"
         d="m 1325.7023,603.80979 c 6.8604,-3.42028 8.7989,-7.71976 5.2057,-12.14649 l -21.885,-16.96251 c -7.7763,1.62769 -10.9027,5.29261 -9.1222,13.53654 z"
         style="display:inline;fill:#164450;fill-opacity:1;fill-rule:evenodd;stroke:none;stroke-width:1px;stroke-linecap:butt;stroke-linejoin:miter;stroke-opacity:1" />
      <path
         sodipodi:nodetypes="ccccc"
         inkscape:connector-curvature="0"
         id="path8388"
         d="m 1335.3599,654.08303 c 4.7487,-3.38068 12.3775,3.73364 9.4702,9.9812 l -18.1035,29.87721 c -3.0998,1.81641 -17.0769,-6.05658 -12.0349,-12.83378 z"
         style="display:inline;fill:#164450;fill-opacity:1;fill-rule:evenodd;stroke:none;stroke-width:1px;stroke-linecap:butt;stroke-linejoin:miter;stroke-opacity:1" />
      <path
         sodipodi:nodetypes="aasssa"
         inkscape:connector-curvature="0"
         id="path8596"
         d="m 1431.0226,676.111 c -0.7834,-0.47342 -1.9181,0.16675 -2.6513,0.71469 -0.7295,0.54518 -1.4172,1.66306 -1.4293,2.32851 -0.022,1.18966 0.3185,2.60668 0.8529,3.2968 0.7638,0.98638 3.992,-0.88099 4.219,-1.91352 0.3674,-1.67124 0.3028,-3.64442 -0.9913,-4.42648 z"
         style="fill:#0b2228;fill-opacity:1;fill-rule:evenodd;stroke:none;stroke-width:1px;stroke-linecap:butt;stroke-linejoin:miter;stroke-opacity:1" />
      <path
         sodipodi:nodetypes="cscsc"
         inkscape:connector-curvature="0"
         id="path8598"
         d="m 1413.0551,567.39404 c 0.091,0.0226 1.8363,-0.32591 2.9198,0.81481 1.3334,1.40394 0.928,3.03289 0.928,3.03289 0,0 -1.0252,0.86076 -3.0103,-1.15431 -1.7476,-1.77401 -0.8375,-2.69339 -0.8375,-2.69339 z"
         style="fill:#0b2228;fill-opacity:1;fill-rule:evenodd;stroke:none;stroke-width:1px;stroke-linecap:butt;stroke-linejoin:miter;stroke-opacity:1" />
    </g>
  </g>
</svg>
